<?xml version="1.0" encoding="utf-8"?>
<!-- Generator: Adobe Illustrator 24.0.3, SVG Export Plug-In . SVG Version: 6.00 Build 0)  -->
<svg version="1.1" id="Calque_1" xmlns="http://www.w3.org/2000/svg" xmlns:xlink="http://www.w3.org/1999/xlink" x="0px" y="0px"
	 viewBox="0 0 18 28" style="enable-background:new 0 0 18 28;" xml:space="preserve">
<style type="text/css">
	.st0{fill:#2A3472;}
</style>
<path class="st0" d="M9,0C6.6,0,4.3,1,2.6,2.7C0.9,4.4,0,6.7,0,9.1v1.1c0,6,2.4,11.7,6.7,15.9l0,0l1.6,1.6c0.4,0.4,1,0.4,1.4,0
	l1.6-1.6l0,0c4.3-4.2,6.7-9.9,6.7-15.9V9.1c0-2.4-0.9-4.7-2.6-6.4C13.7,1,11.4,0,9,0z M9,2c1.9,0,3.6,0.8,4.9,2.1l0,0
	c1.3,1.3,2,3.1,2,5v1.1c0,5.4-2.1,10.6-6,14.5l-1,0.9l-0.9-0.9C4.2,20.9,2,15.7,2,10.3V9.1c0-1.9,0.7-3.7,2.1-5l0,0
	C5.3,2.8,7.1,2,9,2z"/>
<path class="st0" d="M9,5C6.8,5,5,6.8,5,9s1.8,4,4,4s4-1.8,4-4S11.2,5,9,5z M9,7c1.1,0,2,0.9,2,2s-0.9,2-2,2s-2-0.9-2-2S7.9,7,9,7z"
	/>
</svg>
