<?xml version="1.0" encoding="utf-8"?>
<!-- Generator: Adobe Illustrator 24.0.2, SVG Export Plug-In . SVG Version: 6.00 Build 0)  -->
<svg version="1.1" id="Calque_1" xmlns="http://www.w3.org/2000/svg" xmlns:xlink="http://www.w3.org/1999/xlink" x="0px" y="0px"
	 viewBox="0 0 18 18" style="enable-background:new 0 0 18 18;" xml:space="preserve">
<style type="text/css">
	.st0{clip-path:url(#SVGID_2_);}
	.st1{fill:#FFFFFF;}
</style>
<g>
	<defs>
		<rect id="SVGID_1_" y="0" width="18" height="18"/>
	</defs>
	<clipPath id="SVGID_2_">
		<use xlink:href="#SVGID_1_"  style="overflow:visible;"/>
	</clipPath>
	<g class="st0">
		<path class="st1" d="M17,12.5c-1.2,0-2.4-0.2-3.6-0.6c-0.4-0.1-0.7,0-1,0.2l-2.2,2.2c-2.8-1.4-5.2-3.7-6.6-6.6l2.2-2.2
			c0.3-0.3,0.4-0.6,0.2-1C5.7,3.4,5.5,2.2,5.5,1c0-0.6-0.4-1-1-1H1C0.4,0,0,0.4,0,1c0,9.4,7.6,17,17,17c0.6,0,1-0.4,1-1v-3.5
			C18,12.9,17.6,12.5,17,12.5"/>
	</g>
</g>
</svg>
