<?xml version="1.0" encoding="utf-8"?>
<!-- Generator: Adobe Illustrator 24.0.3, SVG Export Plug-In . SVG Version: 6.00 Build 0)  -->
<svg version="1.1" id="Calque_1" xmlns="http://www.w3.org/2000/svg" xmlns:xlink="http://www.w3.org/1999/xlink" x="0px" y="0px"
	 viewBox="0 0 37.6 48.5" style="enable-background:new 0 0 37.6 48.5;" xml:space="preserve">
<style type="text/css">
	.st0{fill:#2A3472;stroke:#2A3472;stroke-width:0.5;stroke-miterlimit:10;}
</style>
<path class="st0" d="M34.2,3.6c-9.8-4.4-21-4.4-30.8,0C1.4,4.4,0.2,6.3,0.2,8.4v28.7c0,1.8,1.4,3.2,3.2,3.2h3.1l-4.8,6.4
	c-0.3,0.5-0.2,1,0.2,1.4c0.2,0.1,0.4,0.2,0.6,0.2c0.3,0,0.6-0.1,0.8-0.4l2-2.8H32l2,2.8c0.2,0.3,0.5,0.4,0.8,0.4
	c0.2,0,0.4-0.1,0.6-0.2c0.4-0.4,0.5-0.9,0.2-1.4L31,40.3h3.1c1.7,0,3.2-1.4,3.2-3.1c0,0,0-0.1,0-0.1V8.4C37.3,6.3,36.1,4.4,34.2,3.6
	z M4.1,5.4c4.6-2.1,9.6-3.1,14.6-3.1c5,0,10,1,14.6,3.1c1.2,0.5,1.9,1.7,1.9,3v0.8h-33V8.4C2.2,7.1,3,5.9,4.1,5.4z M2.2,23.4V11.2
	h15.5v12.2H2.2z M19.8,11.2h15.5v12.2H19.8V11.2z M30.7,43.1H6.9l2.1-2.8h19.6L30.7,43.1z M34.2,38.3H3.4c-0.7,0-1.2-0.5-1.2-1.2
	V25.4h33.1v11.7C35.3,37.7,34.8,38.2,34.2,38.3C34.2,38.2,34.2,38.2,34.2,38.3z"/>
<path class="st0" d="M29,27.4c-2.2,0-4,1.8-4,4s1.8,4,4,4s4-1.8,4-4S31.3,27.4,29,27.4z M29,33.4c-1.1,0-2-0.9-2-2c0-1.1,0.9-2,2-2
	s2,0.9,2,2C31,32.5,30.2,33.4,29,33.4z"/>
<path class="st0" d="M8.4,27.4c-2.2,0-4,1.8-4,4s1.8,4,4,4s4-1.8,4-4S10.7,27.4,8.4,27.4L8.4,27.4z M8.4,33.4c-1.1,0-2-0.9-2-2
	c0-1.1,0.9-2,2-2s2,0.9,2,2C10.4,32.5,9.6,33.4,8.4,33.4z"/>
</svg>
