<?xml version="1.0" encoding="utf-8"?>
<!-- Generator: Adobe Illustrator 24.0.3, SVG Export Plug-In . SVG Version: 6.00 Build 0)  -->
<svg version="1.1" id="Calque_1" xmlns="http://www.w3.org/2000/svg" xmlns:xlink="http://www.w3.org/1999/xlink" x="0px" y="0px"
	 viewBox="0 0 88.2 62" style="enable-background:new 0 0 88.2 62;" xml:space="preserve">
<style type="text/css">
	.st0{clip-path:url(#SVGID_2_);}
	.st1{fill:#FFFFFF;}
</style>
<g>
	<defs>
		<rect id="SVGID_1_" y="0" width="88.2" height="62"/>
	</defs>
	<clipPath id="SVGID_2_">
		<use xlink:href="#SVGID_1_"  style="overflow:visible;"/>
	</clipPath>
	<g class="st0">
		<path class="st1" d="M44.1,62c19.2,0.1,36.5-11.6,43.5-29.5l0.6-1.5l-0.6-1.5C78,5.5,50.8-6.2,26.8,3.3
			C14.8,8.1,5.4,17.5,0.6,29.5L0,31l0.6,1.5C7.6,50.4,24.9,62.1,44.1,62 M44.1,8c15.3,0,29.3,9,35.5,23
			c-8.8,19.6-31.8,28.4-51.4,19.6C19.5,46.7,12.5,39.7,8.6,31C14.8,17,28.8,8,44.1,8"/>
		<path class="st1" d="M44.1,15c8.8,0,16,7.2,16,16s-7.2,16-16,16s-16-7.2-16-16S35.3,15,44.1,15"/>
	</g>
</g>
</svg>
