<?xml version="1.0" encoding="utf-8"?>
<!-- Generator: Adobe Illustrator 24.0.3, SVG Export Plug-In . SVG Version: 6.00 Build 0)  -->
<svg version="1.1" id="Calque_1" xmlns="http://www.w3.org/2000/svg" xmlns:xlink="http://www.w3.org/1999/xlink" x="0px" y="0px"
	 viewBox="0 0 48.1 41.5" style="enable-background:new 0 0 48.1 41.5;" xml:space="preserve">
<style type="text/css">
	.st0{fill:#2A3472;}
</style>
<path class="st0" d="M47.4,18.4L44,13.1l2.7-2.7c0.4-0.3,0.5-1,0.2-1.4c-0.3-0.4-1-0.5-1.4-0.2c-0.1,0.1-0.1,0.1-0.2,0.2l-2.2,2.2
	l-2.2-7.1C40.3,1.7,38.2,0,35.8,0H12.2C9.8,0,7.6,1.6,7.1,4l-2.3,7.2L2.6,9c-0.4-0.4-1-0.4-1.4,0c-0.4,0.4-0.4,1,0,1.4L4,13.1
	l-3.4,5.4C0.2,19.2,0,20,0,20.8v11.9c0,1.4,1.1,2.5,2.5,2.5c0,0,0,0,0,0h1.2v3.3c0,1.7,1.3,3,3,3h3.4c1.7,0,3-1.3,3-3v-3.3H35v3.3
	c0,1.7,1.3,3,3,3h3.4c1.7,0,3-1.3,3-3v-3.3h1.2c1.4,0,2.5-1.1,2.5-2.5c0,0,0,0,0,0V20.8C48,20,47.8,19.2,47.4,18.4z M5.8,14h36.4
	l3.1,5H2.6L5.8,14z M9,4.5C9.3,3,10.7,2,12.2,2h23.6c1.5,0,2.9,1.1,3.2,2.6l2.3,7.5H6.7L9,4.5z M11.1,38.5c0,0.5-0.4,1-0.9,1
	c0,0-0.1,0-0.1,0H6.7c-0.5,0-1-0.4-1-0.9c0,0,0-0.1,0-0.1v-3.3h5.4V38.5z M42.3,38.5c0,0.5-0.4,1-0.9,1c0,0-0.1,0-0.1,0h-3.4
	c-0.5,0-1-0.4-1-0.9c0,0,0-0.1,0-0.1v-3.3h5.4V38.5z M45.5,33.1h-43c-0.3,0-0.5-0.2-0.5-0.4c0,0,0,0,0-0.1V21h44v11.6
	C46,32.9,45.8,33.1,45.5,33.1C45.5,33.1,45.5,33.1,45.5,33.1z"/>
<path class="st0" d="M39.2,22.6c-2.5,0-4.5,2-4.5,4.5s2,4.5,4.5,4.5s4.5-2,4.5-4.5l0,0C43.7,24.6,41.7,22.6,39.2,22.6z M39.2,29.7
	c-1.4,0-2.5-1.1-2.5-2.5s1.1-2.5,2.5-2.5s2.5,1.1,2.5,2.5C41.7,28.6,40.6,29.7,39.2,29.7C39.2,29.7,39.2,29.7,39.2,29.7z"/>
<path class="st0" d="M8.8,22.6c-2.5,0-4.5,2-4.5,4.5s2,4.5,4.5,4.5s4.5-2,4.5-4.5l0,0C13.3,24.6,11.3,22.6,8.8,22.6
	C8.8,22.6,8.8,22.6,8.8,22.6z M8.8,29.7c-1.4,0-2.5-1.1-2.5-2.5s1.1-2.5,2.5-2.5s2.5,1.1,2.5,2.5C11.3,28.6,10.2,29.7,8.8,29.7
	C8.8,29.7,8.8,29.7,8.8,29.7z"/>
<path class="st0" d="M31,24.3H17c-0.6,0-1,0.4-1,1s0.4,1,1,1h14c0.6,0,1-0.4,1-1S31.6,24.3,31,24.3z"/>
<path class="st0" d="M28.6,28h-9.2c-0.6,0-1,0.4-1,1s0.4,1,1,1h9.2c0.5,0,1-0.4,1-0.9c0,0,0-0.1,0-0.1C29.6,28.4,29.2,28,28.6,28z"
	/>
</svg>
